<?xml version="1.0" standalone="no"?>
<!DOCTYPE svg PUBLIC "-//W3C//DTD SVG 20010904//EN"
 "http://www.w3.org/TR/2001/REC-SVG-20010904/DTD/svg10.dtd">
<svg version="1.0" xmlns="http://www.w3.org/2000/svg"
 width="512.000000pt" height="512.000000pt" viewBox="0 0 512.000000 512.000000"
 preserveAspectRatio="xMidYMid meet">

<g transform="translate(0.000000,512.000000) scale(0.100000,-0.100000)"
fill="#000000" stroke="none">
<path d="M0 3520 c0 -880 2 -1600 5 -1600 3 0 26 13 52 29 27 16 77 38 113 49
68 21 230 39 230 25 0 -4 -28 -17 -63 -27 l-62 -20 105 -8 c106 -8 190 -26
190 -40 0 -4 10 -8 23 -9 24 -1 18 -4 -26 -14 -24 -5 -27 -8 -17 -20 7 -8 18
-15 24 -14 7 0 6 2 -1 6 -25 9 -12 18 26 18 29 0 45 -6 60 -24 11 -13 18 -27
15 -32 -3 -5 2 -6 10 -3 11 4 16 0 16 -11 0 -12 -5 -15 -17 -10 -20 9 -157 45
-245 65 -147 34 -347 -40 -418 -154 -19 -32 -20 -46 -18 -238 2 -127 7 -202
13 -201 5 1 19 42 30 90 12 48 35 128 53 176 18 48 32 97 32 108 0 10 6 19 13
20 66 4 514 -4 552 -10 42 -7 280 -53 338 -66 16 -3 18 1 12 23 -4 15 -10 29
-14 32 -4 3 -23 30 -43 61 -21 31 -50 64 -65 74 -15 10 -59 49 -97 86 -55 54
-66 70 -53 75 18 6 40 -4 237 -110 123 -66 186 -120 279 -238 29 -37 55 -67
59 -67 4 1 20 1 35 0 23 -1 26 -3 15 -15 -9 -10 -18 -11 -30 -5 -25 13 -23 -6
3 -42 11 -16 27 -29 35 -29 8 0 14 -4 14 -10 0 -5 3 -9 8 -8 9 3 88 -47 97
-62 4 -6 -3 -6 -19 2 -14 6 -26 15 -26 20 0 5 -5 6 -11 3 -6 -5 -4 -12 8 -21
16 -12 15 -13 -14 -14 -22 0 -33 5 -36 18 -4 13 -5 14 -6 1 -2 -34 21 -45 87
-41 65 4 77 16 47 46 -8 8 -15 22 -15 31 0 8 -11 21 -25 27 -14 6 -25 14 -25
17 0 3 -20 15 -45 26 -25 11 -45 23 -45 28 0 5 7 6 16 3 8 -3 12 -2 9 4 -3 6
-1 10 4 10 6 0 11 -4 11 -8 0 -12 42 -12 57 0 13 11 8 53 -10 76 -6 8 -6 17 2
26 10 11 8 16 -8 21 -20 6 -30 25 -13 25 31 0 167 -132 198 -192 13 -27 22
-48 18 -48 -3 0 4 -15 15 -34 12 -18 21 -43 21 -54 0 -12 9 -23 20 -27 11 -3
20 -10 20 -15 0 -6 -9 -6 -22 0 -13 5 -35 11 -50 14 -17 4 -29 13 -29 24 -1 9
-5 -13 -9 -50 -8 -67 -45 -194 -61 -212 -4 -5 -2 14 6 42 10 38 10 62 3 92 -8
29 -8 44 0 52 8 8 6 20 -5 42 -11 22 -18 27 -21 16 -3 -8 -9 -23 -14 -32 -7
-14 -5 -16 8 -11 11 4 15 2 11 -4 -8 -12 -67 -23 -67 -13 0 4 9 15 20 25 21
19 27 45 10 45 -5 0 -10 -8 -10 -19 0 -13 -6 -18 -22 -16 -13 1 -15 0 -5 -2 9
-2 15 -9 11 -14 -3 -5 -10 -7 -15 -4 -5 3 -6 -1 -3 -9 4 -11 0 -16 -10 -16
-19 0 -20 -18 -5 -57 38 -99 54 -401 26 -483 -9 -24 -15 -46 -13 -48 7 -6 111
31 128 46 16 13 18 13 24 -4 3 -11 10 -30 15 -43 7 -18 3 -35 -18 -78 -16 -31
-40 -69 -55 -85 -15 -16 -27 -33 -26 -36 2 -9 -59 -131 -75 -150 -20 -25 -111
-59 -177 -65 l-64 -7 32 33 c18 18 32 37 32 41 0 5 16 31 35 58 34 46 34 49
15 56 -16 6 -32 -3 -77 -47 -31 -31 -58 -64 -60 -76 -2 -11 -5 -37 -7 -58 -4
-42 -35 -77 -107 -123 -32 -20 -74 -32 -158 -46 -114 -20 -114 -20 -166 0 -67
26 -155 89 -155 110 0 15 10 16 67 14 70 -4 227 12 301 30 76 19 37 20 -50 2
-50 -10 -130 -18 -203 -18 -67 -1 -124 -5 -128 -11 -6 -7 -10 -7 -13 0 -2 6
-23 9 -46 9 -39 -1 -43 -4 -60 -43 -17 -41 -33 -49 -66 -32 -9 5 -29 14 -44
21 -14 7 -28 20 -31 29 -2 10 -26 32 -52 49 -63 42 -106 42 -151 3 -33 -30
-88 -51 -131 -51 -22 0 -23 -3 -23 -95 l0 -95 141 0 c91 0 138 4 134 10 -3 6
-11 10 -16 10 -11 0 -90 52 -124 82 -11 9 -29 24 -40 33 l-20 17 20 -7 c11 -4
28 -10 38 -12 9 -3 17 -12 17 -20 0 -8 4 -12 8 -9 4 2 46 -7 92 -21 259 -77
247 -75 507 -80 211 -5 251 -3 310 12 75 20 98 32 59 32 -14 0 -26 -3 -26 -8
0 -5 -10 -9 -22 -9 -21 0 -21 0 -2 15 18 14 17 15 -11 9 -16 -4 -33 -11 -36
-16 -3 -5 -16 -5 -29 0 -23 9 -23 9 10 20 18 7 35 10 38 8 2 -3 15 0 29 5 14
5 30 6 37 1 18 -14 54 -12 84 5 27 15 8 14 -32 -3 -15 -6 -17 -4 -11 7 6 11 5
12 -6 2 -16 -15 -29 -17 -29 -3 0 5 15 12 34 15 18 4 53 20 76 35 24 16 47 27
52 24 4 -3 8 0 8 6 0 6 8 9 18 6 58 -19 372 303 372 381 0 13 4 22 9 19 5 -3
11 8 15 25 3 17 10 28 14 25 5 -3 7 7 5 22 -3 19 -2 23 5 13 7 -10 11 -10 17
-1 4 7 3 15 -2 19 -6 4 -5 17 2 35 8 19 14 24 17 15 3 -8 8 10 12 39 8 64 29
66 34 4 4 -58 -14 -148 -42 -207 -13 -27 -37 -80 -54 -117 -37 -82 -91 -155
-168 -230 -70 -67 -83 -78 -193 -152 l-84 -56 1926 0 1927 0 0 700 c0 600 -2
704 -15 723 -13 20 -13 26 0 51 13 25 15 265 15 1837 l0 1809 -2560 0 -2560 0
0 -1600z m4360 1364 c0 -16 -26 -19 -35 -4 -4 6 -4 18 -1 27 5 12 9 13 21 3 8
-7 15 -19 15 -26z m-222 -116 c21 -18 9 -88 -18 -110 -31 -25 -47 -23 -81 11
-37 37 -38 73 -2 101 29 23 72 22 101 -2z m-3781 -30 c71 -61 188 -173 478
-459 160 -157 341 -335 404 -396 l114 -110 -38 -69 c-51 -94 -62 -127 -91
-284 -27 -147 -34 -341 -14 -454 5 -33 8 -61 6 -63 -2 -2 -11 9 -21 24 -10 15
-71 82 -135 148 -153 157 -338 361 -413 455 -109 136 -150 208 -194 340 -86
258 -111 376 -148 695 -9 72 -18 147 -21 168 -5 32 -3 37 15 37 11 0 37 -15
58 -32z m1686 -54 c-44 -37 -44 -36 -14 -134 6 -19 11 -44 11 -56 0 -40 -230
-270 -288 -288 -17 -6 -26 0 -42 26 -18 28 -21 45 -18 119 5 105 29 152 115
226 81 69 255 162 273 146 2 -2 -14 -20 -37 -39z m702 -569 c233 -92 465 -207
508 -252 l27 -30 -55 -44 c-58 -46 -184 -199 -250 -304 -21 -33 -67 -105 -103
-160 -36 -55 -103 -174 -148 -265 -110 -219 -165 -384 -210 -637 -5 -29 -51
-44 -155 -50 -100 -6 -111 -2 -223 86 -100 80 -167 164 -183 233 -19 78 -28
433 -14 543 25 187 101 428 187 590 82 155 197 303 275 351 l50 32 92 -25 c51
-13 142 -44 202 -68z m-1324 -328 c-6 -6 -11 -18 -11 -27 0 -21 -23 -70 -32
-70 -5 0 -8 -10 -8 -23 0 -13 -6 -24 -13 -24 -10 0 -6 16 13 56 14 31 33 71
40 90 8 19 16 29 18 22 2 -7 -1 -18 -7 -24z m2207 -188 c-7 -5 -17 -9 -23 -9
-5 0 -3 4 5 10 12 8 12 10 -3 16 -9 3 -17 10 -17 15 0 5 12 2 26 -7 19 -13 22
-19 12 -25z m-2281 1 c-6 -16 -15 -30 -19 -30 -4 0 -8 -10 -9 -22 0 -13 -3
-17 -6 -10 -8 21 25 90 44 92 1 0 -4 -13 -10 -30z m3030 -22 c-9 -72 34 -162
115 -239 32 -31 58 -61 58 -67 0 -6 4 -12 10 -14 5 -1 -5 -43 -21 -93 -17 -49
-30 -107 -30 -128 1 -49 -34 -132 -65 -152 -22 -14 -30 -14 -79 -1 -71 18
-176 77 -211 118 -40 48 -92 164 -105 233 -6 33 -9 97 -7 143 3 83 3 83 43
118 79 70 206 131 274 133 23 1 24 -1 18 -51z m-653 -37 c31 -34 5 -23 -39 16
-36 32 -37 34 -10 20 17 -8 39 -24 49 -36z m-209 4 c1 -24 -19 -24 -29 0 -3
10 0 12 11 8 13 -5 15 -2 9 12 -4 11 -3 16 1 11 4 -4 8 -18 8 -31z m170 -7 c5
-5 -5 -3 -23 3 -18 6 -35 15 -38 20 -6 10 45 -10 61 -23z m-2378 -40 c-3 -8
-6 -5 -6 6 -1 11 2 17 5 13 3 -3 4 -12 1 -19z m2517 -49 c-3 -5 -10 -9 -15 -9
-6 0 -8 4 -4 9 3 5 -6 18 -20 29 -14 11 -25 23 -25 26 0 4 16 -5 35 -20 19
-14 32 -30 29 -35z m-387 19 c-3 -8 -6 -5 -6 6 -1 11 2 17 5 13 3 -3 4 -12 1
-19z m-2132 -42 c-4 -20 -12 -36 -17 -36 -6 0 -7 7 -4 16 3 9 6 30 6 47 0 22
3 28 11 20 6 -6 8 -25 4 -47z m2474 40 c9 -10 8 -15 -2 -19 -8 -3 -13 3 -13
14 0 23 0 23 15 5z m136 -88 c20 -24 48 -55 62 -70 15 -16 21 -28 16 -28 -6 0
-23 15 -37 33 -15 17 -43 49 -64 69 -20 21 -32 38 -26 38 7 0 28 -19 49 -42z
m-478 -10 c-3 -8 -6 -5 -6 6 -1 11 2 17 5 13 3 -3 4 -12 1 -19z m428 12 c3 -5
1 -10 -4 -10 -6 0 -11 5 -11 10 0 6 2 10 4 10 3 0 8 -4 11 -10z m-2568 -57
c-3 -10 -5 -4 -5 12 0 17 2 24 5 18 2 -7 2 -21 0 -30z m2110 -20 c-3 -10 -5
-4 -5 12 0 17 2 24 5 18 2 -7 2 -21 0 -30z m-2119 -58 c-1 -29 -1 -29 -8 5 -6
28 -8 30 -9 10 -1 -28 -21 -65 -21 -41 0 7 5 32 12 54 10 32 13 36 19 21 4
-11 7 -32 7 -49z m-984 -61 c28 -33 65 -75 84 -95 l33 -36 91 14 c93 15 138
12 138 -10 0 -6 -38 -41 -85 -77 -58 -45 -82 -70 -78 -80 4 -8 8 -69 10 -135
l4 -120 -86 93 c-80 85 -90 92 -119 88 -53 -9 -226 -18 -226 -12 0 3 42 47 94
98 l94 93 -19 110 c-10 61 -19 124 -19 140 l0 30 18 -21 c9 -12 39 -48 66 -80z
m3145 -27 c1 -5 -3 -5 -9 -2 -5 3 -10 16 -9 28 0 21 1 21 9 2 5 -11 9 -24 9
-28z m446 -48 c11 -16 1 -19 -13 -3 -7 8 -8 14 -3 14 5 0 13 -5 16 -11z m-385
-51 c0 -6 -7 -5 -15 2 -8 7 -15 17 -15 22 0 6 7 5 15 -2 8 -7 15 -17 15 -22z
m-2243 -20 c-3 -8 -6 -5 -6 6 -1 11 2 17 5 13 3 -3 4 -12 1 -19z m20 0 c-3 -8
-6 -5 -6 6 -1 11 2 17 5 13 3 -3 4 -12 1 -19z m2483 -13 c0 -8 -59 -35 -77
-34 -10 0 2 8 27 19 25 10 46 18 48 19 1 1 2 -1 2 -4z m-2473 -72 c-3 -10 -5
-4 -5 12 0 17 2 24 5 18 2 -7 2 -21 0 -30z m22 -68 c0 -5 -4 -3 -9 5 -5 8 -9
22 -9 30 0 16 17 -16 18 -35z m620 -202 c21 -59 22 -77 19 -365 l-3 -303 30
-60 c28 -56 32 -60 64 -60 47 0 66 30 91 145 15 73 38 269 40 342 0 4 17 -3
38 -15 56 -33 217 -29 367 11 61 16 193 50 295 75 102 26 203 51 225 57 169
42 408 97 555 126 96 19 191 39 210 46 33 10 35 9 67 -27 60 -69 76 -131 77
-290 1 -120 -2 -150 -22 -212 -13 -39 -29 -76 -35 -81 -7 -6 -75 -43 -152 -83
-157 -81 -216 -121 -320 -220 -118 -113 -167 -249 -132 -370 9 -30 28 -66 42
-79 14 -13 25 -27 25 -31 0 -19 -221 -21 -414 -4 -182 16 -213 21 -320 57
-125 41 -388 163 -481 223 -31 19 -58 35 -61 35 -14 0 -218 153 -294 220 -47
41 -98 86 -114 100 -49 43 -125 146 -150 202 -24 54 -30 87 -28 140 4 55 126
137 221 147 l56 6 17 190 c9 105 17 201 18 215 1 21 5 16 24 -25 13 -27 33
-78 45 -112z m-592 95 c-3 -8 -6 -5 -6 6 -1 11 2 17 5 13 3 -3 4 -12 1 -19z
m26 -45 c-3 -14 -1 -23 6 -23 6 0 11 5 11 11 0 5 5 7 12 3 9 -6 9 -9 0 -12 -7
-2 -12 -16 -12 -30 l-1 -27 -16 30 c-21 36 -24 54 -17 79 9 27 25 -2 17 -31z
m-615 -12 c21 -13 11 -55 -15 -59 -28 -4 -50 32 -32 54 13 16 28 18 47 5z
m662 -31 c0 -5 -5 -10 -11 -10 -5 0 -7 5 -4 10 3 6 8 10 11 10 2 0 4 -4 4 -10z
m69 -70 c29 -33 46 -57 38 -54 -8 3 -29 23 -46 45 -18 22 -36 37 -39 35 -4 -3
-8 4 -8 15 0 10 1 19 2 19 0 0 24 -27 53 -60z m-65 15 c11 -8 17 -17 14 -21
-4 -3 -16 4 -27 15 -24 24 -15 28 13 6z m52 -120 c6 -35 19 -46 27 -22 2 6 4
0 4 -15 1 -40 -12 -34 -36 17 -24 51 -25 55 -11 55 5 0 12 -16 16 -35z m-1349
-1 c6 -18 -23 -47 -41 -41 -15 6 -23 47 -10 60 8 7 47 -7 51 -19z m1436 -27
c-3 -6 -12 -2 -20 8 -19 27 -16 37 6 18 11 -9 17 -21 14 -26z m-28 -7 c3 -5 1
-10 -4 -10 -6 0 -11 5 -11 10 0 6 2 10 4 10 3 0 8 -4 11 -10z m100 0 c3 -5 1
-10 -4 -10 -6 0 -11 5 -11 10 0 6 2 10 4 10 3 0 8 -4 11 -10z m49 -18 c3 -5
-1 -9 -9 -9 -8 0 -15 4 -15 9 0 4 4 8 9 8 6 0 12 -4 15 -8z m-158 -39 c-10
-10 -19 5 -10 18 6 11 8 11 12 0 2 -7 1 -15 -2 -18z m124 7 c0 -5 -2 -10 -4
-10 -3 0 -8 5 -11 10 -3 6 -1 10 4 10 6 0 11 -4 11 -10z m-68 -55 c4 -5 10 -6
14 -2 4 3 2 12 -4 20 -9 10 -5 13 19 15 16 1 29 -2 29 -6 0 -17 -13 -22 -27
-10 -11 8 -12 7 -8 -5 4 -8 2 -18 -4 -22 -12 -7 -60 24 -61 39 0 9 30 -12 42
-29z m-372 -114 c6 -22 19 -81 30 -133 29 -135 46 -196 65 -224 9 -14 15 -28
13 -30 -3 -2 -40 -11 -83 -20 -73 -15 -83 -15 -139 0 -80 23 -124 53 -132 91
-4 25 4 45 50 115 31 47 63 94 72 105 8 11 34 46 57 77 23 32 45 58 49 58 4 0
12 -18 18 -39z m-820 -471 c0 -24 -26 -38 -42 -22 -16 16 -2 42 22 42 13 0 20
-7 20 -20z m90 0 c0 -5 -4 -10 -10 -10 -5 0 -10 5 -10 10 0 6 5 10 10 10 6 0
10 -4 10 -10z m280 -21 c0 -6 -4 -7 -10 -4 -5 3 -10 11 -10 16 0 6 5 7 10 4 6
-3 10 -11 10 -16z m644 -85 c5 -14 4 -15 -9 -4 -17 14 -19 20 -6 20 5 0 12 -7
15 -16z m41 -4 c3 -6 -1 -7 -9 -4 -18 7 -21 14 -7 14 6 0 13 -4 16 -10z m25
-51 c0 -14 -17 -10 -23 5 -4 10 -1 13 9 9 7 -3 14 -9 14 -14z m20 -51 c0 -5
-7 -3 -15 6 -8 8 -15 18 -15 22 0 3 7 1 15 -6 8 -7 15 -17 15 -22z m1082 -258
c20 -6 43 -16 50 -23 24 -22 202 -152 277 -202 69 -45 72 -49 50 -57 -47 -18
-51 -28 -29 -65 11 -19 20 -36 20 -39 0 -21 -183 26 -270 71 -34 17 -107 72
-141 106 -14 14 -31 105 -31 166 0 5 -8 24 -19 44 -23 45 -16 53 24 28 18 -11
49 -24 69 -29z m2051 -37 c-7 -2 -19 -2 -25 0 -7 3 -2 5 12 5 14 0 19 -2 13
-5z m74 -35 c14 -13 23 -33 23 -50 0 -32 21 -78 44 -97 9 -8 16 -20 16 -29 0
-9 -8 -5 -21 12 -17 22 -24 25 -31 14 -8 -10 -9 -9 -4 4 3 10 -1 29 -8 43 -7
13 -13 37 -12 52 1 18 -8 36 -24 50 -14 12 -21 23 -16 23 6 0 20 -10 33 -22z
m-193 -23 c23 -17 14 -20 -15 -5 -13 7 -19 7 -19 0 0 -5 5 -10 12 -10 6 0 8
-3 5 -6 -4 -4 -14 -1 -22 6 -13 11 -13 15 -3 21 17 11 20 11 42 -6z m-88 -19
c-16 -14 -26 -29 -22 -35 5 -7 2 -10 -6 -9 -7 2 -13 -4 -13 -12 0 -8 6 -14 13
-12 8 1 11 -2 7 -8 -7 -11 -45 5 -45 19 0 10 77 81 88 81 4 -1 -6 -11 -22 -24z
m-716 -24 c0 -5 -11 -19 -25 -32 l-25 -23 0 31 c0 27 4 32 25 32 14 0 25 -4
25 -8z m657 -59 c28 -80 85 -164 97 -144 4 6 11 11 17 11 5 0 1 -8 -8 -19 -10
-10 -31 -37 -46 -60 -16 -22 -34 -41 -41 -41 -20 0 -73 63 -86 102 -13 41 -9
62 22 126 23 45 35 52 45 25z m394 -76 c-10 -9 -11 -8 -5 6 3 10 9 15 12 12 3
-3 0 -11 -7 -18z m75 -63 c5 -38 2 -55 -15 -88 -12 -22 -19 -32 -15 -21 4 11
8 30 8 42 1 11 5 19 9 16 9 -5 3 51 -9 80 -3 10 -1 17 4 17 6 0 14 -21 18 -46z
m-361 26 c-3 -5 -11 -10 -16 -10 -6 0 -7 5 -4 10 3 6 11 10 16 10 6 0 7 -4 4
-10z m66 -102 c17 -29 47 -71 65 -94 19 -23 34 -45 34 -49 0 -5 8 -17 18 -28
9 -11 11 -17 5 -13 -7 4 -13 3 -13 -2 0 -5 -11 -14 -24 -22 -22 -11 -30 -10
-68 13 -96 57 -131 130 -89 187 11 16 21 36 21 45 0 28 18 15 51 -37z m247
-60 c4 -20 -94 -121 -109 -113 -6 5 1 14 19 25 16 10 41 33 55 51 21 27 23 36
14 48 -10 11 -9 13 3 9 8 -2 16 -12 18 -20z m-2971 -20 c-3 -7 -5 -2 -5 12 0
14 2 19 5 13 2 -7 2 -19 0 -25z m511 10 c-4 -27 -23 -34 -32 -13 -8 21 1 35
20 35 10 0 14 -8 12 -22z m1949 6 c34 -9 48 -73 21 -99 -7 -7 -8 -2 -3 13 6
22 5 23 -17 17 -40 -12 -142 -63 -164 -82 -12 -10 -26 -29 -33 -41 -6 -12 -17
-22 -24 -22 -7 0 -6 4 3 10 10 7 11 10 2 10 -9 0 -11 12 -6 43 17 122 48 157
138 157 34 0 71 -3 83 -6z m464 -17 c-10 -9 -11 -8 -5 6 3 10 9 15 12 12 3 -3
0 -11 -7 -18z m-2153 -31 c-7 -8 -15 -12 -17 -11 -5 6 10 25 20 25 5 0 4 -6
-3 -14z m17 -25 c3 -5 1 -12 -5 -16 -5 -3 -10 1 -10 9 0 18 6 21 15 7z m2075
-5 c-7 -7 -13 -7 -20 0 -6 6 -3 10 10 10 13 0 16 -4 10 -10z m-2110 -16 c5 8
8 3 7 -14 -2 -24 -3 -25 -14 -9 -7 9 -12 24 -12 32 1 11 3 10 6 -3 4 -14 7
-16 13 -6z m1685 -10 c-3 -5 -12 -10 -18 -10 -7 0 -6 4 3 10 19 12 23 12 15 0z
m35 -13 c0 -2 -10 -12 -21 -23 -22 -19 -22 -19 -10 4 10 18 31 31 31 19z m-70
-47 c8 -5 11 -10 5 -10 -5 0 -17 5 -25 10 -8 5 -10 10 -5 10 6 0 17 -5 25 -10z
m-1655 -11 c11 -17 -1 -21 -15 -4 -8 9 -8 15 -2 15 6 0 14 -5 17 -11z m1635
-19 c13 -11 19 -20 13 -20 -5 0 -18 9 -28 20 -10 11 -16 20 -13 20 3 0 15 -9
28 -20z m-1623 -32 c-3 -8 -6 -5 -6 6 -1 11 2 17 5 13 3 -3 4 -12 1 -19z
m1570 16 c-3 -3 -12 -4 -19 -1 -8 3 -5 6 6 6 11 1 17 -2 13 -5z m47 -20 c3 -8
2 -12 -4 -9 -6 3 -10 10 -10 16 0 14 7 11 14 -7z m-44 -88 c23 -32 47 -49 75
-50 6 -1 11 -5 12 -10 3 -18 66 -36 125 -36 32 0 57 4 54 9 -6 9 42 6 52 -3
14 -15 -16 -21 -93 -19 -119 2 -189 40 -274 149 -5 5 -14 21 -20 35 -10 20 -7
19 16 -8 15 -17 39 -47 53 -67z m-1690 74 c0 -5 -5 -10 -11 -10 -5 0 -7 5 -4
10 3 6 8 10 11 10 2 0 4 -4 4 -10z m1680 0 c0 -5 -2 -10 -4 -10 -3 0 -8 5 -11
10 -3 6 -1 10 4 10 6 0 11 -4 11 -10z m142 -25 c9 4 18 2 21 -2 3 -5 -6 -9
-20 -8 -15 0 -28 7 -30 15 -4 11 -2 12 5 2 5 -7 16 -10 24 -7z m-113 -38 c1
-5 -6 -1 -15 7 -8 9 -12 21 -8 28 5 8 10 6 15 -8 4 -10 8 -23 8 -27z m-2069 8
c0 -8 -7 -15 -15 -15 -8 0 -15 7 -15 15 0 8 7 15 15 15 8 0 15 -7 15 -15z
m487 -7 c-3 -8 -6 -5 -6 6 -1 11 2 17 5 13 3 -3 4 -12 1 -19z m-186 -35 c-12
-20 -14 -14 -5 12 4 9 9 14 11 11 3 -2 0 -13 -6 -23z m1989 -5 c0 -4 -5 -10
-12 -14 -7 -4 -8 -3 -4 5 4 6 0 14 -8 17 -9 3 -16 10 -16 15 0 5 9 4 20 -3 11
-7 20 -16 20 -20z m49 -35 c2 -2 -3 -3 -11 -3 -9 0 -19 7 -22 16 -6 15 -4 15
11 3 10 -7 20 -15 22 -16z m-2039 10 c-1 -14 -30 -47 -36 -41 -6 7 17 48 28
48 5 0 8 -3 8 -7z m53 -19 c4 -25 -2 -90 -18 -194 -5 -25 -4 -42 0 -37 5 4 10
24 12 45 2 21 8 51 12 67 6 21 7 8 4 -40 -6 -71 -20 -116 -32 -98 -9 15 -52
35 -59 28 -4 -3 0 -10 8 -15 8 -6 10 -10 4 -10 -14 0 -41 30 -28 30 5 1 -8 10
-29 21 -29 15 -37 24 -32 37 4 9 10 25 12 35 3 9 9 17 13 17 9 0 90 117 90
130 0 6 8 10 19 10 12 0 20 -9 24 -26z m31 -7 c4 -19 3 -26 -4 -22 -5 3 -10
18 -10 32 0 32 5 28 14 -10z m1806 23 c0 -5 -2 -10 -4 -10 -3 0 -8 5 -11 10
-3 6 -1 10 4 10 6 0 11 -4 11 -10z m-1947 -85 c-21 -29 -38 -33 -23 -6 8 16
20 25 38 30 2 1 -5 -10 -15 -24z m130 10 c-3 -9 -8 -14 -10 -11 -3 3 -2 9 2
15 9 16 15 13 8 -4z m-418 -111 c0 -22 -5 -30 -22 -32 -28 -4 -51 42 -32 64
18 22 54 1 54 -32z m452 -6 c-3 -8 -6 -5 -6 6 -1 11 2 17 5 13 3 -3 4 -12 1
-19z m-227 -18 c0 -5 8 -10 17 -10 9 0 14 -3 10 -6 -8 -8 -47 5 -47 17 0 5 5
9 10 9 6 0 10 -4 10 -10z m211 -33 c-10 -9 -11 -8 -5 6 3 10 9 15 12 12 3 -3
0 -11 -7 -18z m-231 9 c0 -3 -4 -8 -10 -11 -5 -3 -10 -1 -10 4 0 6 5 11 10 11
6 0 10 -2 10 -4z m-20 -36 c0 -5 -5 -10 -11 -10 -5 0 -7 5 -4 10 3 6 8 10 11
10 2 0 4 -4 4 -10z m95 0 c-3 -5 -12 -10 -18 -10 -7 0 -6 4 3 10 19 12 23 12
15 0z m137 -12 c-7 -7 -12 -8 -12 -2 0 14 12 26 19 19 2 -3 -1 -11 -7 -17z
m-112 8 c0 -2 -8 -10 -17 -17 -16 -13 -17 -12 -4 4 13 16 21 21 21 13z m59
-24 c0 -10 -3 -12 -5 -5 -3 7 -13 9 -22 6 -14 -6 -15 -5 -2 9 17 19 30 14 29
-10z m-39 -24 c0 -6 -6 -5 -15 2 -8 7 -15 14 -15 16 0 2 7 1 15 -2 8 -4 15
-11 15 -16z m21 -21 c-6 -8 -8 -23 -4 -32 4 -13 3 -16 -5 -11 -16 9 -15 33 1
50 16 18 23 11 8 -7z m40 -10 c-10 -9 -11 -8 -5 6 3 10 9 15 12 12 3 -3 0 -11
-7 -18z"/>
<path d="M3565 2540 c-77 -26 -187 -64 -245 -83 -144 -47 -175 -60 -293 -116
-102 -50 -145 -77 -136 -86 3 -2 21 -1 40 4 78 20 99 21 99 5 0 -8 -6 -28 -14
-43 -38 -72 -116 -387 -136 -543 -12 -97 -5 -126 38 -170 71 -76 231 1 284
137 56 142 131 323 151 363 13 26 57 136 98 246 l74 198 81 54 c45 30 86 54
91 54 6 0 16 7 23 15 19 23 2 19 -155 -35z"/>
<path d="M2230 1820 c-15 -5 -18 -8 -9 -9 27 -2 30 -29 7 -45 -12 -9 -18 -19
-14 -23 4 -4 13 -1 19 7 17 23 64 39 127 44 30 3 57 6 60 6 3 1 -17 8 -45 15
-55 16 -107 17 -145 5z"/>
<path d="M2166 1784 c-21 -20 -20 -73 1 -104 l17 -24 8 34 c16 67 16 80 0 80
-10 0 -13 -7 -10 -24 3 -14 2 -30 -2 -36 -4 -7 -10 2 -14 21 -7 36 14 60 46
51 10 -2 18 1 18 7 0 17 -46 13 -64 -5z"/>
<path d="M506 1925 c10 -8 26 -14 34 -14 9 0 4 6 -10 14 -33 19 -49 19 -24 0z"/>
<path d="M620 1880 c0 -5 5 -10 10 -10 6 0 10 5 10 10 0 6 -4 10 -10 10 -5 0
-10 -4 -10 -10z"/>
<path d="M600 1860 c0 -5 7 -10 16 -10 8 0 12 5 9 10 -3 6 -10 10 -16 10 -5 0
-9 -4 -9 -10z"/>
<path d="M645 1850 c3 -5 8 -10 11 -10 2 0 4 5 4 10 0 6 -5 10 -11 10 -5 0 -7
-4 -4 -10z"/>
<path d="M777 1586 c3 -6 12 -18 20 -27 12 -15 11 -16 -13 -11 -27 5 -27 5
-21 -43 4 -26 7 -62 7 -79 l0 -31 61 -3 62 -2 -7 30 c-3 16 -9 44 -13 62 l-6
31 44 -6 c24 -4 89 -12 144 -18 85 -9 103 -15 122 -35 36 -39 36 -28 2 36 -31
59 -52 77 -48 43 3 -36 -2 -37 -21 -8 -11 17 -28 31 -37 31 -30 2 -206 24
-255 33 -32 5 -45 4 -41 -3z"/>
<path d="M1510 1568 c0 -17 24 -57 38 -63 14 -5 14 -4 0 12 -8 10 -20 27 -26
38 -6 11 -12 17 -12 13z"/>
<path d="M1448 1493 c7 -3 16 -2 19 1 4 3 -2 6 -13 5 -11 0 -14 -3 -6 -6z"/>
<path d="M1480 1490 c0 -5 7 -10 16 -10 8 0 12 5 9 10 -3 6 -10 10 -16 10 -5
0 -9 -4 -9 -10z"/>
<path d="M1010 1350 c0 -6 7 -13 15 -17 24 -9 27 1 5 15 -13 8 -20 8 -20 2z"/>
<path d="M260 1308 c-80 -45 -121 -72 -129 -86 -7 -13 -12 -14 -23 -4 -11 9
-17 9 -26 0 -9 -9 -18 -8 -39 3 -16 8 -31 18 -35 24 -9 12 -10 2 -2 -19 3 -9
10 -16 16 -16 5 0 16 -7 24 -15 9 -8 21 -15 27 -15 7 0 6 4 -3 10 -13 9 -13
10 0 11 60 6 78 3 102 -13 24 -17 30 -17 55 -5 49 25 134 30 184 11 60 -23 86
-48 70 -68 -8 -10 -9 -16 -1 -21 6 -4 9 -1 8 6 -2 6 3 14 11 17 8 2 11 0 8 -5
-3 -5 3 -24 14 -42 18 -30 18 -35 5 -50 -11 -12 -12 -21 -4 -34 12 -22 3 -78
-19 -122 -13 -26 -59 -75 -70 -75 -6 0 19 43 34 58 24 24 14 33 -11 10 -13
-13 -23 -25 -23 -28 1 -3 -2 -15 -7 -27 -5 -17 0 -34 24 -67 l32 -44 29 26
c48 42 130 207 136 273 9 88 -17 151 -91 222 -34 32 -71 65 -82 73 -31 21
-182 29 -214 12z m286 -315 c-11 -11 -19 6 -11 24 8 17 8 17 12 0 3 -10 2 -21
-1 -24z"/>
<path d="M1168 1313 c7 -3 16 -2 19 1 4 3 -2 6 -13 5 -11 0 -14 -3 -6 -6z"/>
<path d="M1460 1291 c0 -6 4 -13 10 -16 6 -3 7 1 4 9 -7 18 -14 21 -14 7z"/>
<path d="M49 1239 c13 -11 27 -17 30 -13 7 7 -28 34 -43 34 -6 -1 0 -10 13
-21z"/>
<path d="M1291 1198 c-5 -13 -15 -45 -22 -73 l-13 -50 -12 58 c-6 32 -15 62
-20 67 -5 5 -60 6 -122 3 l-113 -6 -23 -46 c-13 -25 -43 -86 -68 -136 -25 -49
-56 -119 -69 -155 -13 -35 -49 -115 -80 -178 -43 -85 -53 -115 -43 -119 8 -3
11 -10 7 -17 -3 -6 -3 -8 1 -4 4 3 31 -2 60 -12 116 -39 354 -46 376 -9 6 8
13 8 28 0 25 -13 43 5 33 33 -7 18 -8 18 -14 2 -4 -10 -5 -22 -2 -27 4 -5 0
-6 -8 -3 -11 4 -7 18 16 67 43 89 94 234 112 319 9 40 22 100 30 133 7 33 12
71 10 85 -1 14 -3 40 -4 58 -1 27 -5 32 -26 32 -17 0 -28 -7 -34 -22z m-261
-464 c0 -8 -4 -12 -10 -9 -5 3 -10 10 -10 16 0 5 5 9 10 9 6 0 10 -7 10 -16z
m-132 -127 c-4 -28 -46 -30 -62 -4 -9 15 -7 21 8 32 25 19 58 2 54 -28z"/>
<path d="M1611 1204 c0 -11 3 -14 6 -6 3 7 2 16 -1 19 -3 4 -6 -2 -5 -13z"/>
<path d="M139 1169 c13 -11 26 -17 29 -14 7 6 -29 34 -43 34 -5 0 1 -9 14 -20z"/>
<path d="M285 1180 c-3 -5 -1 -10 4 -10 6 0 11 5 11 10 0 6 -2 10 -4 10 -3 0
-8 -4 -11 -10z"/>
<path d="M169 1133 c-7 -10 -10 -15 -5 -11 5 4 18 2 30 -4 20 -11 20 -10 6 8
-8 10 -15 20 -16 22 -1 1 -7 -6 -15 -15z"/>
<path d="M495 1080 c3 -5 8 -10 11 -10 2 0 4 5 4 10 0 6 -5 10 -11 10 -5 0 -7
-4 -4 -10z"/>
<path d="M510 1050 c0 -5 5 -10 10 -10 6 0 10 5 10 10 0 6 -4 10 -10 10 -5 0
-10 -4 -10 -10z"/>
<path d="M1346 994 c-4 -20 -5 -38 -3 -40 3 -3 8 11 11 32 4 20 5 38 3 40 -3
3 -8 -11 -11 -32z"/>
<path d="M1332 900 c0 -14 2 -19 5 -12 2 6 2 18 0 25 -3 6 -5 1 -5 -13z"/>
<path d="M1306 823 c-10 -27 -22 -61 -28 -76 -6 -15 -8 -30 -4 -34 3 -3 6 -1
6 6 0 6 9 30 19 52 20 40 36 99 28 99 -2 0 -12 -21 -21 -47z"/>
<path d="M1780 754 c0 -8 5 -12 10 -9 6 4 8 11 5 16 -9 14 -15 11 -15 -7z"/>
<path d="M1247 570 c-9 -11 -13 -20 -7 -20 5 0 14 9 20 20 6 11 9 20 8 20 -2
0 -11 -9 -21 -20z"/>
<path d="M1435 570 c3 -5 1 -10 -5 -10 -6 0 -15 -11 -20 -25 -5 -14 -14 -25
-20 -25 -5 0 -10 -5 -10 -11 0 -7 -10 -20 -22 -30 -11 -11 -16 -19 -10 -19 12
0 102 109 102 123 0 4 -5 7 -11 7 -5 0 -7 -4 -4 -10z"/>
<path d="M1112 474 c-14 -16 -5 -18 17 -5 7 5 9 11 5 14 -5 3 -15 -1 -22 -9z"/>
<path d="M1005 450 c-3 -5 3 -10 15 -10 12 0 18 5 15 10 -3 6 -10 10 -15 10
-5 0 -12 -4 -15 -10z"/>
<path d="M903 433 c15 -2 39 -2 55 0 15 2 2 4 -28 4 -30 0 -43 -2 -27 -4z"/>
<path d="M119 293 c7 -26 31 -45 31 -24 0 6 -4 11 -10 11 -5 0 -10 9 -10 20 0
11 -4 20 -9 20 -5 0 -6 -12 -2 -27z"/>
<path d="M157 284 c3 -7 9 -14 14 -14 14 0 10 17 -5 23 -10 4 -13 1 -9 -9z"/>
<path d="M1105 280 c-16 -7 -17 -9 -3 -9 9 -1 20 4 23 9 7 11 7 11 -20 0z"/>
<path d="M87 256 c-16 -13 -16 -14 5 -19 12 -4 24 -4 27 -2 2 3 -1 5 -7 5 -6
0 -9 7 -6 15 7 18 4 18 -19 1z"/>
<path d="M348 243 c7 -3 16 -2 19 1 4 3 -2 6 -13 5 -11 0 -14 -3 -6 -6z"/>
<path d="M45 220 c-3 -5 -2 -10 4 -10 5 0 13 5 16 10 3 6 2 10 -4 10 -5 0 -13
-4 -16 -10z"/>
<path d="M468 223 c6 -2 18 -2 25 0 6 3 1 5 -13 5 -14 0 -19 -2 -12 -5z"/>
<path d="M1244 115 c-10 -8 -14 -14 -9 -14 6 0 19 6 29 14 11 8 15 15 10 15
-6 0 -19 -7 -30 -15z"/>
<path d="M200 68 c0 -5 6 -8 14 -8 8 0 16 -7 20 -15 4 -10 15 -13 38 -10 18 3
27 2 20 -1 -16 -8 3 -34 25 -34 13 0 13 3 3 15 -11 14 -10 14 16 5 38 -15 140
-24 105 -9 -14 5 -30 8 -38 5 -7 -3 -14 -2 -17 2 -3 5 -28 14 -55 22 -28 7
-51 17 -51 21 0 4 -18 9 -40 11 -22 2 -40 0 -40 -4z"/>
</g>
</svg>
